<svg width="144" height="60" viewBox="0 0 144 60" fill="none" xmlns="http://www.w3.org/2000/svg">
<rect width="144" height="60" rx="30" fill="#FF9500"/>
<path d="M38.7118 23.9091H40.6806V33.1903C40.6806 34.0298 40.5144 34.7479 40.182 35.3445C39.8539 35.9411 39.3915 36.397 38.7949 36.7124C38.1983 37.0234 37.4995 37.179 36.6983 37.179C35.9611 37.179 35.2985 37.0447 34.7104 36.7763C34.1266 36.5078 33.6642 36.1179 33.3233 35.6065C32.9867 35.0909 32.8184 34.4645 32.8184 33.7273H34.7807C34.7807 34.0895 34.8638 34.4027 35.03 34.6669C35.2005 34.9311 35.4327 35.1378 35.7267 35.2869C36.025 35.4318 36.3659 35.5043 36.7495 35.5043C37.1671 35.5043 37.5208 35.4169 37.8105 35.2422C38.1046 35.0632 38.3283 34.8011 38.4817 34.456C38.6351 34.1108 38.7118 33.6889 38.7118 33.1903V23.9091ZM47.5376 37.1982C46.6172 37.1982 45.8139 36.9872 45.1278 36.5653C44.4418 36.1435 43.9091 35.5533 43.5298 34.7947C43.1506 34.0362 42.9609 33.1499 42.9609 32.1357C42.9609 31.1172 43.1506 30.2266 43.5298 29.4638C43.9091 28.701 44.4418 28.1087 45.1278 27.6868C45.8139 27.2649 46.6172 27.054 47.5376 27.054C48.4581 27.054 49.2614 27.2649 49.9474 27.6868C50.6335 28.1087 51.1662 28.701 51.5455 29.4638C51.9247 30.2266 52.1143 31.1172 52.1143 32.1357C52.1143 33.1499 51.9247 34.0362 51.5455 34.7947C51.1662 35.5533 50.6335 36.1435 49.9474 36.5653C49.2614 36.9872 48.4581 37.1982 47.5376 37.1982ZM47.544 35.5938C48.1406 35.5938 48.6349 35.4361 49.027 35.1207C49.419 34.8054 49.7088 34.3857 49.8963 33.8615C50.0881 33.3374 50.1839 32.7599 50.1839 32.1293C50.1839 31.5028 50.0881 30.9276 49.8963 30.4034C49.7088 29.875 49.419 29.451 49.027 29.1314C48.6349 28.8118 48.1406 28.652 47.544 28.652C46.9432 28.652 46.4446 28.8118 46.0483 29.1314C45.6563 29.451 45.3643 29.875 45.1726 30.4034C44.9851 30.9276 44.8913 31.5028 44.8913 32.1293C44.8913 32.7599 44.9851 33.3374 45.1726 33.8615C45.3643 34.3857 45.6563 34.8054 46.0483 35.1207C46.4446 35.4361 46.9432 35.5938 47.544 35.5938ZM54.2477 37V27.1818H56.1589V37H54.2477ZM55.2129 25.6669C54.8805 25.6669 54.595 25.5561 54.3564 25.3345C54.122 25.1087 54.0048 24.8402 54.0048 24.5291C54.0048 24.2138 54.122 23.9453 54.3564 23.7237C54.595 23.4979 54.8805 23.3849 55.2129 23.3849C55.5453 23.3849 55.8287 23.4979 56.063 23.7237C56.3017 23.9453 56.421 24.2138 56.421 24.5291C56.421 24.8402 56.3017 25.1087 56.063 25.3345C55.8287 25.5561 55.5453 25.6669 55.2129 25.6669ZM60.6413 31.1705V37H58.7301V27.1818H60.5646V28.7798H60.6861C60.9119 28.2599 61.2656 27.8423 61.7472 27.527C62.233 27.2116 62.8445 27.054 63.5817 27.054C64.2507 27.054 64.8366 27.1946 65.3395 27.4759C65.8423 27.7528 66.2322 28.1662 66.5092 28.7159C66.7862 29.2656 66.9247 29.9453 66.9247 30.755V37H65.0135V30.9851C65.0135 30.2734 64.8281 29.7173 64.4574 29.3168C64.0866 28.9119 63.5774 28.7095 62.9297 28.7095C62.4865 28.7095 62.0923 28.8054 61.7472 28.9972C61.4063 29.1889 61.1357 29.4702 60.9354 29.8409C60.7393 30.2074 60.6413 30.6506 60.6413 31.1705ZM84.9711 23.9091V37H83.1557L76.5016 27.3991H76.3801V37H74.405V23.9091H76.2331L82.8936 33.5227H83.0151V23.9091H84.9711ZM91.8345 37.1982C90.9141 37.1982 90.1108 36.9872 89.4247 36.5653C88.7386 36.1435 88.206 35.5533 87.8267 34.7947C87.4474 34.0362 87.2578 33.1499 87.2578 32.1357C87.2578 31.1172 87.4474 30.2266 87.8267 29.4638C88.206 28.701 88.7386 28.1087 89.4247 27.6868C90.1108 27.2649 90.9141 27.054 91.8345 27.054C92.755 27.054 93.5582 27.2649 94.2443 27.6868C94.9304 28.1087 95.4631 28.701 95.8423 29.4638C96.2216 30.2266 96.4112 31.1172 96.4112 32.1357C96.4112 33.1499 96.2216 34.0362 95.8423 34.7947C95.4631 35.5533 94.9304 36.1435 94.2443 36.5653C93.5582 36.9872 92.755 37.1982 91.8345 37.1982ZM91.8409 35.5938C92.4375 35.5938 92.9318 35.4361 93.3239 35.1207C93.7159 34.8054 94.0057 34.3857 94.1932 33.8615C94.3849 33.3374 94.4808 32.7599 94.4808 32.1293C94.4808 31.5028 94.3849 30.9276 94.1932 30.4034C94.0057 29.875 93.7159 29.451 93.3239 29.1314C92.9318 28.8118 92.4375 28.652 91.8409 28.652C91.2401 28.652 90.7415 28.8118 90.3452 29.1314C89.9531 29.451 89.6612 29.875 89.4695 30.4034C89.282 30.9276 89.1882 31.5028 89.1882 32.1293C89.1882 32.7599 89.282 33.3374 89.4695 33.8615C89.6612 34.3857 89.9531 34.8054 90.3452 35.1207C90.7415 35.4361 91.2401 35.5938 91.8409 35.5938ZM100.374 37L97.4851 27.1818H99.4602L101.384 34.392H101.48L103.411 27.1818H105.386L107.303 34.3601H107.399L109.31 27.1818H111.286L108.403 37H106.453L104.459 29.9112H104.312L102.317 37H100.374Z" fill="#131313"/>
</svg>
