<svg width="130" height="60" viewBox="0 0 130 60" fill="none" xmlns="http://www.w3.org/2000/svg">
<rect width="130" height="60" rx="30" fill="#FF9500"/>
<path d="M33.8747 37V23.9091H35.8499V35.2997H41.7817V37H33.8747ZM48.0171 37.1982C47.0967 37.1982 46.2934 36.9872 45.6073 36.5653C44.9213 36.1435 44.3886 35.5533 44.0093 34.7947C43.6301 34.0362 43.4404 33.1499 43.4404 32.1357C43.4404 31.1172 43.6301 30.2266 44.0093 29.4638C44.3886 28.701 44.9213 28.1087 45.6073 27.6868C46.2934 27.2649 47.0967 27.054 48.0171 27.054C48.9376 27.054 49.7409 27.2649 50.4269 27.6868C51.113 28.1087 51.6457 28.701 52.0249 29.4638C52.4042 30.2266 52.5938 31.1172 52.5938 32.1357C52.5938 33.1499 52.4042 34.0362 52.0249 34.7947C51.6457 35.5533 51.113 36.1435 50.4269 36.5653C49.7409 36.9872 48.9376 37.1982 48.0171 37.1982ZM48.0235 35.5938C48.6201 35.5938 49.1144 35.4361 49.5065 35.1207C49.8985 34.8054 50.1883 34.3857 50.3758 33.8615C50.5676 33.3374 50.6634 32.7599 50.6634 32.1293C50.6634 31.5028 50.5676 30.9276 50.3758 30.4034C50.1883 29.875 49.8985 29.451 49.5065 29.1314C49.1144 28.8118 48.6201 28.652 48.0235 28.652C47.4227 28.652 46.9241 28.8118 46.5278 29.1314C46.1357 29.451 45.8438 29.875 45.6521 30.4034C45.4646 30.9276 45.3708 31.5028 45.3708 32.1293C45.3708 32.7599 45.4646 33.3374 45.6521 33.8615C45.8438 34.3857 46.1357 34.8054 46.5278 35.1207C46.9241 35.4361 47.4227 35.5938 48.0235 35.5938ZM58.8437 40.8864C58.0638 40.8864 57.3927 40.7841 56.8302 40.5795C56.2719 40.375 55.816 40.1044 55.4623 39.7678C55.1086 39.4311 54.8444 39.0625 54.6697 38.6619L56.3124 37.9844C56.4275 38.1719 56.5809 38.37 56.7726 38.5788C56.9687 38.7919 57.2329 38.973 57.5653 39.1222C57.9019 39.2713 58.3344 39.3459 58.8628 39.3459C59.5873 39.3459 60.186 39.169 60.659 38.8153C61.132 38.4659 61.3685 37.9077 61.3685 37.1406V35.2102H61.2471C61.132 35.419 60.9658 35.6513 60.7485 35.907C60.5354 36.1626 60.2414 36.3842 59.8664 36.5717C59.4914 36.7592 59.0035 36.853 58.4026 36.853C57.627 36.853 56.9282 36.6719 56.306 36.3097C55.6881 35.9432 55.1981 35.4041 54.8358 34.6925C54.4779 33.9766 54.2989 33.0966 54.2989 32.0526C54.2989 31.0085 54.4758 30.1136 54.8295 29.3679C55.1874 28.6222 55.6775 28.0511 56.2996 27.6548C56.9218 27.2543 57.627 27.054 58.4154 27.054C59.0248 27.054 59.517 27.1562 59.892 27.3608C60.267 27.5611 60.5589 27.7955 60.7677 28.0639C60.9807 28.3324 61.1448 28.5689 61.2599 28.7734H61.4005V27.1818H63.2733V37.2173C63.2733 38.0611 63.0773 38.7536 62.6853 39.2947C62.2932 39.8359 61.7627 40.2365 61.0937 40.4964C60.4289 40.7564 59.6789 40.8864 58.8437 40.8864ZM58.8245 35.2678C59.3742 35.2678 59.8387 35.1399 60.218 34.8842C60.6015 34.6243 60.8912 34.2536 61.0873 33.772C61.2876 33.2862 61.3877 32.7045 61.3877 32.027C61.3877 31.3665 61.2897 30.7848 61.0937 30.282C60.8976 29.7791 60.61 29.3871 60.2307 29.1058C59.8515 28.8203 59.3827 28.6776 58.8245 28.6776C58.2492 28.6776 57.7698 28.8267 57.3863 29.125C57.0028 29.419 56.713 29.8196 56.517 30.3267C56.3252 30.8338 56.2293 31.4006 56.2293 32.027C56.2293 32.6705 56.3273 33.2351 56.5233 33.7209C56.7194 34.2067 57.0091 34.5859 57.3927 34.8587C57.7805 35.1314 58.2577 35.2678 58.8245 35.2678ZM74.7359 37.1982C73.8154 37.1982 73.0122 36.9872 72.3261 36.5653C71.64 36.1435 71.1073 35.5533 70.7281 34.7947C70.3488 34.0362 70.1592 33.1499 70.1592 32.1357C70.1592 31.1172 70.3488 30.2266 70.7281 29.4638C71.1073 28.701 71.64 28.1087 72.3261 27.6868C73.0122 27.2649 73.8154 27.054 74.7359 27.054C75.6563 27.054 76.4596 27.2649 77.1457 27.6868C77.8318 28.1087 78.3644 28.701 78.7437 29.4638C79.123 30.2266 79.3126 31.1172 79.3126 32.1357C79.3126 33.1499 79.123 34.0362 78.7437 34.7947C78.3644 35.5533 77.8318 36.1435 77.1457 36.5653C76.4596 36.9872 75.6563 37.1982 74.7359 37.1982ZM74.7423 35.5938C75.3389 35.5938 75.8332 35.4361 76.2252 35.1207C76.6173 34.8054 76.907 34.3857 77.0945 33.8615C77.2863 33.3374 77.3822 32.7599 77.3822 32.1293C77.3822 31.5028 77.2863 30.9276 77.0945 30.4034C76.907 29.875 76.6173 29.451 76.2252 29.1314C75.8332 28.8118 75.3389 28.652 74.7423 28.652C74.1414 28.652 73.6428 28.8118 73.2465 29.1314C72.8545 29.451 72.5626 29.875 72.3708 30.4034C72.1833 30.9276 72.0896 31.5028 72.0896 32.1293C72.0896 32.7599 72.1833 33.3374 72.3708 33.8615C72.5626 34.3857 72.8545 34.8054 73.2465 35.1207C73.6428 35.4361 74.1414 35.5938 74.7423 35.5938ZM87.6654 32.9283V27.1818H89.583V37H87.7037V35.2997H87.6015C87.3756 35.8239 87.0134 36.2607 86.5148 36.6101C86.0205 36.9553 85.4047 37.1278 84.6675 37.1278C84.0368 37.1278 83.4786 36.9893 82.9928 36.7124C82.5113 36.4311 82.132 36.0156 81.855 35.4659C81.5823 34.9162 81.4459 34.2365 81.4459 33.4268V27.1818H83.3572V33.1967C83.3572 33.8658 83.5425 34.3984 83.9133 34.7947C84.284 35.1911 84.7655 35.3892 85.3579 35.3892C85.7158 35.3892 86.0716 35.2997 86.4253 35.1207C86.7833 34.9418 87.0795 34.6712 87.3138 34.3089C87.5525 33.9467 87.6697 33.4865 87.6654 32.9283ZM96.7341 27.1818V28.7159H91.3712V27.1818H96.7341ZM92.8094 24.8295H94.7206V34.1172C94.7206 34.4879 94.776 34.767 94.8868 34.9545C94.9976 35.1378 95.1404 35.2635 95.3151 35.3317C95.4941 35.3956 95.6879 35.4276 95.8968 35.4276C96.0502 35.4276 96.1844 35.4169 96.2994 35.3956C96.4145 35.3743 96.504 35.3572 96.5679 35.3445L96.9131 36.9233C96.8023 36.9659 96.6446 37.0085 96.4401 37.0511C96.2355 37.098 95.9798 37.1236 95.673 37.1278C95.1702 37.1364 94.7014 37.0469 94.2668 36.8594C93.8321 36.6719 93.4806 36.3821 93.2121 35.9901C92.9436 35.598 92.8094 35.1058 92.8094 34.5135V24.8295Z" fill="#131313"/>
</svg>
